<svg width="167" height="35" viewBox="0 0 167 35" fill="none" xmlns="http://www.w3.org/2000/svg">
<g clip-path="url(#clip0_2075_1462)">
<path d="M27.0005 29.9291C41.9125 29.9291 54.0011 24.5706 54.0011 17.9605C54.0011 11.3504 41.9125 5.99187 27.0005 5.99187C12.0886 5.99187 0 11.3504 0 17.9605C0 24.5706 12.0886 29.9291 27.0005 29.9291Z" fill="#043340"/>
<path d="M3.1522 23.5773C3.63081 23.9761 4.1598 24.361 4.7337 24.7318C3.3351 20.7602 2.72944 16.3509 2.87511 12.5804C2.43373 12.9685 2.03945 13.3685 1.69336 13.7793C1.70541 16.8882 2.18292 20.3203 3.1522 23.5773Z" fill="#A2BFDC"/>
<path d="M52.2982 13.7706C51.951 13.3588 51.5545 12.9577 51.1109 12.5696C51.3376 16.3758 50.5644 20.8608 49.0234 24.8863C49.6214 24.5134 50.1723 24.1242 50.6718 23.7221C51.7516 20.4024 52.3146 16.9119 52.2982 13.7717V13.7706Z" fill="#A2BFDC"/>
<path d="M34.3371 34.9135C29.3363 34.2293 24.2622 34.1233 19.2197 34.6065C7.62351 35.7189 3.49781 18.5756 5.1505 9.94718C5.99382 5.54759 10.9618 2.39437 15.1565 1.415C22.7584 -0.359971 30.8795 -0.471312 38.5209 1.11124C42.6214 1.97279 46.677 4.71848 48.2727 8.66406C51.6077 16.9065 45.6639 36.4636 34.336 34.9124L34.3371 34.9135Z" fill="#A2BFDC"/>
<g style="mix-blend-mode:multiply" opacity="0.46">
<path d="M48.2749 8.66514C47.4853 6.71505 46.0954 5.0579 44.3967 3.77694C44.9673 4.52714 45.4438 5.34436 45.7975 6.21996C49.1325 14.4624 43.1887 34.0195 31.8608 32.4683C26.86 31.7841 21.7858 31.6781 16.7434 32.1613C13.9922 32.4251 11.6616 31.6619 9.72852 30.2285C12.0285 33.1558 15.1685 34.9957 19.2208 34.6065C24.2632 34.1233 29.3363 34.2282 34.3371 34.9135C45.665 36.4647 51.6088 16.9076 48.2738 8.66514H48.2749Z" fill="#A3B6BF"/>
</g>
<path d="M38.0777 26.8721C36.1457 27.6126 34.0769 28.0677 32.1712 28.3249C26.1047 29.1454 18.8204 28.7162 13.5042 25.4647C11.1166 24.0043 9.26237 21.8239 8.81333 19.0263C8.77718 18.8015 8.74104 18.5756 8.7049 18.3507C7.84734 13.0053 11.8044 8.0987 17.2717 7.67928C23.865 7.17338 30.4878 7.17338 37.081 7.67928C42.5484 8.0987 46.5054 13.0053 45.6479 18.3507C45.6139 18.5626 45.58 18.7745 45.546 18.9874C44.8944 23.0454 41.7303 25.4711 38.0777 26.8721Z" fill="#043340"/>
<path d="M32.2925 22.9784C32.2925 24.0097 30.1185 25.8073 27.4363 25.8073C24.7541 25.8073 22.5801 24.0107 22.5801 22.9784C22.5801 21.9461 24.7541 22.0682 27.4363 22.0682C30.1185 22.0682 32.2925 21.9461 32.2925 22.9784Z" fill="white"/>
<path d="M20.4439 16.4525C20.4439 17.3043 19.7451 17.994 18.8821 17.994C18.0191 17.994 17.3203 17.3043 17.3203 16.4525C17.3203 15.6007 18.0191 14.911 18.8821 14.911C19.7451 14.911 20.4439 15.6018 20.4439 16.4525Z" fill="white"/>
<path d="M36.6626 15.9585C36.6626 16.8103 35.9639 17.5 35.1009 17.5C34.2378 17.5 33.5391 16.8103 33.5391 15.9585C33.5391 15.1067 34.2378 14.417 35.1009 14.417C35.9639 14.417 36.6626 15.1067 36.6626 15.9585Z" fill="white"/>
</g>
<path d="M85.3344 20.448L83.2224 14.676C83.1184 14.42 83.0104 14.116 82.8984 13.764C82.7864 13.412 82.6744 13.032 82.5624 12.624C82.4584 13.032 82.3504 13.416 82.2384 13.776C82.1264 14.128 82.0184 14.436 81.9144 14.7L79.8144 20.448H85.3344ZM91.0344 27H88.5384C88.2584 27 88.0304 26.932 87.8544 26.796C87.6784 26.652 87.5464 26.476 87.4584 26.268L86.1624 22.728H78.9744L77.6784 26.268C77.6144 26.452 77.4904 26.62 77.3064 26.772C77.1224 26.924 76.8944 27 76.6224 27H74.1024L80.9304 9.648H84.2184L91.0344 27ZM99.8744 17.088C99.7944 17.216 99.7104 17.308 99.6224 17.364C99.5344 17.412 99.4224 17.436 99.2864 17.436C99.1424 17.436 98.9864 17.396 98.8184 17.316C98.6584 17.236 98.4704 17.148 98.2544 17.052C98.0384 16.948 97.7904 16.856 97.5104 16.776C97.2384 16.696 96.9144 16.656 96.5384 16.656C95.9544 16.656 95.4944 16.78 95.1584 17.028C94.8304 17.276 94.6664 17.6 94.6664 18C94.6664 18.264 94.7504 18.488 94.9184 18.672C95.0944 18.848 95.3224 19.004 95.6024 19.14C95.8904 19.276 96.2144 19.4 96.5744 19.512C96.9344 19.616 97.2984 19.732 97.6664 19.86C98.0424 19.988 98.4104 20.136 98.7704 20.304C99.1304 20.464 99.4504 20.672 99.7304 20.928C100.018 21.176 100.246 21.476 100.414 21.828C100.59 22.18 100.678 22.604 100.678 23.1C100.678 23.692 100.57 24.24 100.354 24.744C100.146 25.24 99.8344 25.672 99.4184 26.04C99.0024 26.4 98.4864 26.684 97.8704 26.892C97.2624 27.092 96.5584 27.192 95.7584 27.192C95.3344 27.192 94.9184 27.152 94.5104 27.072C94.1104 27 93.7224 26.896 93.3464 26.76C92.9784 26.624 92.6344 26.464 92.3144 26.28C92.0024 26.096 91.7264 25.896 91.4864 25.68L92.1704 24.552C92.2584 24.416 92.3624 24.312 92.4824 24.24C92.6024 24.168 92.7544 24.132 92.9384 24.132C93.1224 24.132 93.2944 24.184 93.4544 24.288C93.6224 24.392 93.8144 24.504 94.0304 24.624C94.2464 24.744 94.4984 24.856 94.7864 24.96C95.0824 25.064 95.4544 25.116 95.9024 25.116C96.2544 25.116 96.5544 25.076 96.8024 24.996C97.0584 24.908 97.2664 24.796 97.4264 24.66C97.5944 24.524 97.7144 24.368 97.7864 24.192C97.8664 24.008 97.9064 23.82 97.9064 23.628C97.9064 23.34 97.8184 23.104 97.6424 22.92C97.4744 22.736 97.2464 22.576 96.9584 22.44C96.6784 22.304 96.3544 22.184 95.9864 22.08C95.6264 21.968 95.2544 21.848 94.8704 21.72C94.4944 21.592 94.1224 21.444 93.7544 21.276C93.3944 21.1 93.0704 20.88 92.7824 20.616C92.5024 20.352 92.2744 20.028 92.0984 19.644C91.9304 19.26 91.8464 18.796 91.8464 18.252C91.8464 17.748 91.9464 17.268 92.1464 16.812C92.3464 16.356 92.6384 15.96 93.0224 15.624C93.4144 15.28 93.8984 15.008 94.4744 14.808C95.0584 14.6 95.7304 14.496 96.4904 14.496C97.3384 14.496 98.1104 14.636 98.8064 14.916C99.5024 15.196 100.082 15.564 100.546 16.02L99.8744 17.088ZM105.873 9.168V19.38H106.425C106.625 19.38 106.781 19.356 106.893 19.308C107.013 19.252 107.133 19.144 107.253 18.984L110.313 15.204C110.441 15.036 110.581 14.908 110.733 14.82C110.893 14.732 111.097 14.688 111.345 14.688H114.057L110.229 19.26C109.957 19.62 109.661 19.896 109.341 20.088C109.509 20.208 109.657 20.348 109.785 20.508C109.921 20.668 110.049 20.84 110.169 21.024L114.273 27H111.597C111.365 27 111.165 26.964 110.997 26.892C110.829 26.812 110.689 26.672 110.577 26.472L107.433 21.804C107.321 21.62 107.205 21.5 107.085 21.444C106.965 21.388 106.785 21.36 106.545 21.36H105.873V27H102.909V9.168H105.873ZM136.338 18.3V25.32C135.458 25.968 134.518 26.444 133.518 26.748C132.526 27.044 131.462 27.192 130.326 27.192C128.91 27.192 127.626 26.972 126.474 26.532C125.33 26.092 124.35 25.48 123.534 24.696C122.726 23.912 122.102 22.976 121.662 21.888C121.222 20.8 121.002 19.612 121.002 18.324C121.002 17.02 121.214 15.824 121.638 14.736C122.062 13.648 122.662 12.712 123.438 11.928C124.222 11.144 125.17 10.536 126.282 10.104C127.394 9.672 128.642 9.456 130.026 9.456C130.73 9.456 131.386 9.512 131.994 9.624C132.61 9.736 133.178 9.892 133.698 10.092C134.226 10.284 134.706 10.52 135.138 10.8C135.57 11.08 135.966 11.388 136.326 11.724L135.402 13.188C135.258 13.42 135.07 13.564 134.838 13.62C134.606 13.668 134.354 13.608 134.082 13.44C133.818 13.288 133.554 13.136 133.29 12.984C133.026 12.832 132.73 12.7 132.402 12.588C132.082 12.476 131.718 12.384 131.31 12.312C130.91 12.24 130.446 12.204 129.918 12.204C129.062 12.204 128.286 12.348 127.59 12.636C126.902 12.924 126.314 13.336 125.826 13.872C125.338 14.408 124.962 15.052 124.698 15.804C124.434 16.556 124.302 17.396 124.302 18.324C124.302 19.316 124.442 20.204 124.722 20.988C125.01 21.764 125.41 22.424 125.922 22.968C126.442 23.504 127.066 23.916 127.794 24.204C128.522 24.484 129.334 24.624 130.23 24.624C130.87 24.624 131.442 24.556 131.946 24.42C132.45 24.284 132.942 24.1 133.422 23.868V20.724H131.238C131.03 20.724 130.866 20.668 130.746 20.556C130.634 20.436 130.578 20.292 130.578 20.124V18.3H136.338ZM145.088 18.372C145.68 18.372 146.196 18.3 146.636 18.156C147.076 18.004 147.44 17.792 147.728 17.52C148.024 17.24 148.244 16.904 148.388 16.512C148.532 16.112 148.604 15.668 148.604 15.18C148.604 14.716 148.532 14.296 148.388 13.92C148.244 13.544 148.028 13.224 147.74 12.96C147.452 12.696 147.088 12.496 146.648 12.36C146.208 12.216 145.688 12.144 145.088 12.144H142.676V18.372H145.088ZM145.088 9.648C146.248 9.648 147.252 9.784 148.1 10.056C148.948 10.328 149.648 10.708 150.2 11.196C150.752 11.684 151.16 12.268 151.424 12.948C151.696 13.628 151.832 14.372 151.832 15.18C151.832 16.02 151.692 16.792 151.412 17.496C151.132 18.192 150.712 18.792 150.152 19.296C149.592 19.8 148.888 20.192 148.04 20.472C147.2 20.752 146.216 20.892 145.088 20.892H142.676V27H139.448V9.648H145.088ZM166.427 12.3H161.195V27H157.967V12.3H152.735V9.648H166.427V12.3Z" fill="white"/>
<defs>
<clipPath id="clip0_2075_1462">
<rect width="54" height="35" fill="white"/>
</clipPath>
</defs>
</svg>
