<svg width="133" height="54" viewBox="0 0 133 54" fill="none" xmlns="http://www.w3.org/2000/svg">
<g clip-path="url(#clip0_2100_1863)">
<path d="M27 0C12.0883 0 0 12.0883 0 27C0 41.9117 12.0883 54 27 54C41.9117 54 54 41.9117 54 27C54 12.0883 41.9117 0 27 0ZM45.9844 28.582H42.7937L38.9925 37.1347C38.3693 38.5371 36.3149 38.3199 35.9988 36.8181L33.1471 23.2722L30.638 32.6811C30.2393 34.1766 28.1516 34.2688 27.6227 32.8141L25.1231 25.9403L22.2006 36.8997C21.7715 38.5091 19.4671 38.4479 19.1239 36.818L15.9816 21.892L13.7033 27.5876C13.5859 27.8811 13.3832 28.1328 13.1213 28.31C12.8595 28.4873 12.5506 28.582 12.2344 28.582H8.01562C7.14192 28.582 6.43359 27.8737 6.43359 27C6.43359 26.1263 7.14192 25.418 8.01562 25.418H11.1633L14.9843 15.8657C15.5656 14.4123 17.6788 14.5956 18.0012 16.1273L20.853 29.6731L23.3621 20.2642C23.7608 18.7687 25.8485 18.6765 26.3774 20.1312L28.877 27.0051L31.7995 16.0455C32.2286 14.4361 34.533 14.4973 34.8762 16.1272L38.0875 31.3805L40.32 26.3575C40.4442 26.0778 40.647 25.8402 40.9036 25.6735C41.1601 25.5067 41.4596 25.418 41.7656 25.418H45.9844C46.8581 25.418 47.5664 26.1263 47.5664 27C47.5664 27.8737 46.8581 28.582 45.9844 28.582Z" fill="white"/>
</g>
<path d="M71.096 36L66.468 17.8H70.004L73.852 33.79H74.216L78.064 17.8H81.6L76.972 36H71.096ZM89.2412 36.364C87.9585 36.364 86.8058 36.104 85.7832 35.584C84.7605 35.064 83.9545 34.31 83.3652 33.322C82.7758 32.334 82.4812 31.1467 82.4812 29.76V29.344C82.4812 27.9573 82.7758 26.77 83.3652 25.782C83.9545 24.794 84.7605 24.04 85.7832 23.52C86.8058 23 87.9585 22.74 89.2412 22.74C90.5238 22.74 91.6765 23 92.6992 23.52C93.7218 24.04 94.5278 24.794 95.1172 25.782C95.7065 26.77 96.0012 27.9573 96.0012 29.344V29.76C96.0012 31.1467 95.7065 32.334 95.1172 33.322C94.5278 34.31 93.7218 35.064 92.6992 35.584C91.6765 36.104 90.5238 36.364 89.2412 36.364ZM89.2412 33.452C90.2465 33.452 91.0785 33.1313 91.7372 32.49C92.3958 31.8313 92.7252 30.8953 92.7252 29.682V29.422C92.7252 28.2087 92.3958 27.2813 91.7372 26.64C91.0958 25.9813 90.2638 25.652 89.2412 25.652C88.2358 25.652 87.4038 25.9813 86.7452 26.64C86.0865 27.2813 85.7572 28.2087 85.7572 29.422V29.682C85.7572 30.8953 86.0865 31.8313 86.7452 32.49C87.4038 33.1313 88.2358 33.452 89.2412 33.452ZM99.0251 36V23.104H102.301V36H99.0251ZM100.663 21.596C100.074 21.596 99.5711 21.4053 99.1551 21.024C98.7564 20.6427 98.5571 20.14 98.5571 19.516C98.5571 18.892 98.7564 18.3893 99.1551 18.008C99.5711 17.6267 100.074 17.436 100.663 17.436C101.27 17.436 101.772 17.6267 102.171 18.008C102.57 18.3893 102.769 18.892 102.769 19.516C102.769 20.14 102.57 20.6427 102.171 21.024C101.772 21.4053 101.27 21.596 100.663 21.596ZM111.287 36.364C109.606 36.364 108.228 36 107.153 35.272C106.079 34.544 105.429 33.504 105.203 32.152L108.219 31.372C108.341 31.9787 108.54 32.4553 108.817 32.802C109.112 33.1487 109.467 33.4 109.883 33.556C110.317 33.6947 110.785 33.764 111.287 33.764C112.05 33.764 112.613 33.634 112.977 33.374C113.341 33.0967 113.523 32.7587 113.523 32.36C113.523 31.9613 113.35 31.658 113.003 31.45C112.657 31.2247 112.102 31.0427 111.339 30.904L110.611 30.774C109.71 30.6007 108.887 30.3667 108.141 30.072C107.396 29.76 106.798 29.3353 106.347 28.798C105.897 28.2607 105.671 27.5673 105.671 26.718C105.671 25.4353 106.139 24.456 107.075 23.78C108.011 23.0867 109.242 22.74 110.767 22.74C112.206 22.74 113.402 23.0607 114.355 23.702C115.309 24.3433 115.933 25.184 116.227 26.224L113.185 27.16C113.047 26.5013 112.761 26.0333 112.327 25.756C111.911 25.4787 111.391 25.34 110.767 25.34C110.143 25.34 109.667 25.4527 109.337 25.678C109.008 25.886 108.843 26.1807 108.843 26.562C108.843 26.978 109.017 27.29 109.363 27.498C109.71 27.6887 110.178 27.836 110.767 27.94L111.495 28.07C112.466 28.2433 113.341 28.4773 114.121 28.772C114.919 29.0493 115.543 29.4567 115.993 29.994C116.461 30.514 116.695 31.2247 116.695 32.126C116.695 33.478 116.201 34.5267 115.213 35.272C114.243 36 112.934 36.364 111.287 36.364ZM125.442 36.364C124.159 36.364 123.024 36.0953 122.036 35.558C121.065 35.0033 120.303 34.232 119.748 33.244C119.211 32.2387 118.942 31.06 118.942 29.708V29.396C118.942 28.044 119.211 26.874 119.748 25.886C120.285 24.8807 121.039 24.1093 122.01 23.572C122.981 23.0173 124.107 22.74 125.39 22.74C126.655 22.74 127.756 23.026 128.692 23.598C129.628 24.1527 130.356 24.9327 130.876 25.938C131.396 26.926 131.656 28.0787 131.656 29.396V30.514H122.27C122.305 31.398 122.634 32.1173 123.258 32.672C123.882 33.2267 124.645 33.504 125.546 33.504C126.465 33.504 127.141 33.3047 127.574 32.906C128.007 32.5073 128.337 32.0653 128.562 31.58L131.24 32.984C130.997 33.4347 130.642 33.9287 130.174 34.466C129.723 34.986 129.117 35.4367 128.354 35.818C127.591 36.182 126.621 36.364 125.442 36.364ZM122.296 28.07H128.328C128.259 27.3247 127.955 26.7267 127.418 26.276C126.898 25.8253 126.213 25.6 125.364 25.6C124.48 25.6 123.778 25.8253 123.258 26.276C122.738 26.7267 122.417 27.3247 122.296 28.07Z" fill="white"/>
<defs>
<clipPath id="clip0_2100_1863">
<rect width="54" height="54" fill="white"/>
</clipPath>
</defs>
</svg>
