<svg width="21" height="31" viewBox="0 0 21 31" fill="none" xmlns="http://www.w3.org/2000/svg">
<g id="Figma-logo 1" clip-path="url(#clip0_2306_2340)">
<path id="path0_fill" d="M5.2158 30.5C7.97524 30.5 10.2148 28.26 10.2148 25.5V20.5H5.2158C2.45635 20.5 0.216797 22.74 0.216797 25.5C0.216797 28.26 2.45635 30.5 5.2158 30.5Z" fill="#0ACF83"/>
<path id="path1_fill" d="M0.216797 15.5C0.216797 12.74 2.45635 10.5 5.2158 10.5H10.2148V20.5H5.2158C2.45635 20.5 0.216797 18.26 0.216797 15.5Z" fill="#A259FF"/>
<path id="path1_fill_1_" d="M0.216797 5.5C0.216797 2.74 2.45635 0.5 5.2158 0.5H10.2148V10.5H5.2158C2.45635 10.5 0.216797 8.26 0.216797 5.5Z" fill="#F24E1E"/>
<path id="path2_fill" d="M10.2148 0.5H15.2138C17.9733 0.5 20.2128 2.74 20.2128 5.5C20.2128 8.26 17.9733 10.5 15.2138 10.5H10.2148V0.5Z" fill="#FF7262"/>
<path id="path3_fill" d="M20.2128 15.5C20.2128 18.26 17.9733 20.5 15.2138 20.5C12.4544 20.5 10.2148 18.26 10.2148 15.5C10.2148 12.74 12.4544 10.5 15.2138 10.5C17.9733 10.5 20.2128 12.74 20.2128 15.5Z" fill="#1ABCFE"/>
</g>
<defs>
<clipPath id="clip0_2306_2340">
<rect width="20" height="30" fill="white" transform="translate(0.214844 0.5)"/>
</clipPath>
</defs>
</svg>
