<svg width="284" height="85" viewBox="0 0 284 85" fill="none" xmlns="http://www.w3.org/2000/svg">
<path d="M25.4014 41.3846C20.5289 41.3846 17.7926 39.4644 17.7926 35.7201V35.576H21.393V36.0081C21.393 37.4962 22.137 38.0963 25.4014 38.0963C28.2817 38.0963 28.9537 37.6643 28.9537 36.5841C28.9537 35.6 28.4017 35.24 26.7455 34.952L22.2331 34.3039C19.3528 33.8479 17.6486 32.4077 17.6486 29.7914C17.6486 27.3672 19.6168 24.8229 25.0173 24.8229C29.9618 24.8229 32.2661 27.1032 32.2661 30.4875V30.6315H28.6417V30.2955C28.6417 28.7593 27.8496 28.1113 24.6573 28.1113C22.065 28.1113 21.273 28.6153 21.273 29.6474C21.273 30.5835 21.801 30.9196 23.1451 31.1596L27.6576 31.8797C31.258 32.4557 32.5541 34.2079 32.5541 36.4161C32.5541 39.0324 30.5139 41.3846 25.4014 41.3846ZM37.7167 41.3846C35.1244 41.3846 33.5643 40.1845 33.5643 38.1683C33.5643 36.3921 34.8844 35.288 37.4527 35.024L42.6132 34.4959V34.0399C42.6132 32.4797 41.9171 32.0477 39.9969 32.0477C38.1727 32.0477 37.4287 32.5277 37.4287 33.8959V33.9919H33.8043V33.9199C33.8043 30.9436 36.3006 28.8794 40.261 28.8794C44.2694 28.8794 46.1656 30.9436 46.1656 34.0879V41.1446H42.8052V38.3843H42.6132C42.0611 40.2565 40.381 41.3846 37.7167 41.3846ZM37.1886 37.9283C37.1886 38.5763 37.6927 38.8404 38.7488 38.8404C41.1971 38.8404 42.5172 38.2643 42.6132 36.5601L38.4368 37.0402C37.5727 37.1122 37.1886 37.3522 37.1886 37.9283ZM51.5909 27.8953H47.9905V25.063H51.5909V27.8953ZM51.5909 41.1446H47.9905V29.1194H51.5909V41.1446ZM57.0758 41.1446H53.4754V25.063H57.0758V33.5838H59.8121L62.8844 29.1194H67.1568L62.7644 34.928L67.0848 41.1446H62.8364L59.8361 36.8002H57.0758V41.1446ZM71.632 27.8953H68.0316V25.063H71.632V27.8953ZM71.632 41.1446H68.0316V29.1194H71.632V41.1446ZM77.1169 41.1446H73.5165V29.1194H76.8529V32.3117H77.0689C77.4049 30.3675 78.6771 28.8794 81.1013 28.8794C83.7896 28.8794 84.8937 30.7275 84.8937 33.0798V35.072H81.2933V33.8239C81.2933 32.5037 80.7653 31.9277 79.3011 31.9277C77.693 31.9277 77.1169 32.6717 77.1169 34.1839V41.1446ZM89.8939 41.3846C87.3016 41.3846 85.7415 40.1845 85.7415 38.1683C85.7415 36.3921 87.0616 35.288 89.6299 35.024L94.7904 34.4959V34.0399C94.7904 32.4797 94.0943 32.0477 92.1741 32.0477C90.3499 32.0477 89.6059 32.5277 89.6059 33.8959V33.9919H85.9815V33.9199C85.9815 30.9436 88.4778 28.8794 92.4382 28.8794C96.4466 28.8794 98.3428 30.9436 98.3428 34.0879V41.1446H94.9824V38.3843H94.7904C94.2383 40.2565 92.5582 41.3846 89.8939 41.3846ZM89.3658 37.9283C89.3658 38.5763 89.8699 38.8404 90.926 38.8404C93.3743 38.8404 94.6944 38.2643 94.7904 36.5601L90.614 37.0402C89.7499 37.1122 89.3658 37.3522 89.3658 37.9283ZM103.768 41.1446H100.168V29.1194H103.504V32.8158H103.72C104.032 30.7995 105.472 28.8794 108.617 28.8794C111.905 28.8794 113.465 30.9916 113.465 33.6558V41.1446H109.865V34.856C109.865 32.9358 109.073 32.1197 106.864 32.1197C104.584 32.1197 103.768 33.0318 103.768 35.072V41.1446ZM127.223 41.3846C121.918 41.3846 118.63 38.1203 118.63 33.1038C118.63 28.0873 121.918 24.8229 127.223 24.8229C132.215 24.8229 135.432 27.3192 135.432 31.3996V31.7596H131.423V31.3996C131.423 29.2874 130.223 28.2793 127.295 28.2793C123.766 28.2793 122.446 29.5274 122.446 33.1038C122.446 36.6802 123.766 37.9283 127.295 37.9283C130.223 37.9283 131.423 36.9202 131.423 34.808V34.4479H135.432V34.808C135.432 38.8884 132.239 41.3846 127.223 41.3846ZM140.592 41.1446H136.992V25.063H140.592V32.7918H140.784C141.168 30.7515 142.584 28.8794 145.657 28.8794C148.897 28.8794 150.481 30.9916 150.481 33.7759V41.1446H146.881V34.856C146.881 32.8398 146.017 32.1197 143.76 32.1197C141.336 32.1197 140.592 33.1038 140.592 35.12V41.1446ZM155.898 27.8953H152.298V25.063H155.898V27.8953ZM155.898 41.1446H152.298V29.1194H155.898V41.1446ZM161.383 41.1446H157.783V25.063H161.383V41.1446ZM166.868 41.1446H163.268V25.063H166.868V33.5838H169.605L172.677 29.1194H176.949L172.557 34.928L176.877 41.1446H172.629L169.629 36.8002H166.868V41.1446ZM181.52 41.3846C178.928 41.3846 177.368 40.1845 177.368 38.1683C177.368 36.3921 178.688 35.288 181.256 35.024L186.417 34.4959V34.0399C186.417 32.4797 185.721 32.0477 183.801 32.0477C181.977 32.0477 181.232 32.5277 181.232 33.8959V33.9919H177.608V33.9199C177.608 30.9436 180.104 28.8794 184.065 28.8794C188.073 28.8794 189.969 30.9436 189.969 34.0879V41.1446H186.609V38.3843H186.417C185.865 40.2565 184.185 41.3846 181.52 41.3846ZM180.992 37.9283C180.992 38.5763 181.496 38.8404 182.553 38.8404C185.001 38.8404 186.321 38.2643 186.417 36.5601L182.241 37.0402C181.376 37.1122 180.992 37.3522 180.992 37.9283ZM195.395 41.1446H191.794V29.1194H195.131V32.7678H195.323C195.611 30.7515 196.811 28.8794 199.835 28.8794C202.619 28.8794 204.036 30.5835 204.3 32.8158H204.516C204.804 30.7755 206.028 28.8794 209.124 28.8794C212.22 28.8794 213.732 30.9196 213.732 33.6558V41.1446H210.132V34.856C210.132 32.8638 209.436 32.1197 207.372 32.1197C205.188 32.1197 204.564 32.9838 204.564 35.072V41.1446H200.963V34.856C200.963 32.8638 200.267 32.1197 198.203 32.1197C196.019 32.1197 195.395 32.9838 195.395 35.072V41.1446ZM219.259 41.3846C216.666 41.3846 215.106 40.1845 215.106 38.1683C215.106 36.3921 216.426 35.288 218.995 35.024L224.155 34.4959V34.0399C224.155 32.4797 223.459 32.0477 221.539 32.0477C219.715 32.0477 218.971 32.5277 218.971 33.8959V33.9919H215.346V33.9199C215.346 30.9436 217.843 28.8794 221.803 28.8794C225.811 28.8794 227.708 30.9436 227.708 34.0879V41.1446H224.347V38.3843H224.155C223.603 40.2565 221.923 41.3846 219.259 41.3846ZM218.731 37.9283C218.731 38.5763 219.235 38.8404 220.291 38.8404C222.739 38.8404 224.059 38.2643 224.155 36.5601L219.979 37.0402C219.115 37.1122 218.731 37.3522 218.731 37.9283ZM233.133 41.1446H229.532V29.1194H232.869V32.3117H233.085C233.421 30.3675 234.693 28.8794 237.117 28.8794C239.806 28.8794 240.91 30.7275 240.91 33.0798V35.072H237.309V33.8239C237.309 32.5037 236.781 31.9277 235.317 31.9277C233.709 31.9277 233.133 32.6717 233.133 34.1839V41.1446ZM245.814 27.8953H242.213V25.063H245.814V27.8953ZM245.814 41.1446H242.213V29.1194H245.814V41.1446Z" fill="white"/>
<rect x="3.85723" y="5.28616" width="255.455" height="54.8627" stroke="#0094FF" stroke-width="1.71446"/>
<rect x="0.85723" y="1.85723" width="6.85784" height="6.85784" fill="white" stroke="#0094FF" stroke-width="1.71446"/>
<rect x="256.31" y="1.85723" width="6.85784" height="6.85784" fill="white" stroke="#0094FF" stroke-width="1.71446"/>
<rect x="0.85723" y="56.72" width="6.85784" height="6.85784" fill="white" stroke="#0094FF" stroke-width="1.71446"/>
<rect x="256.31" y="56.72" width="6.85784" height="6.85784" fill="white" stroke="#0094FF" stroke-width="1.71446"/>
<g filter="url(#filter0_d_425_5038)">
<path d="M264.481 62.4374C264.479 62.4248 264.492 62.4151 264.503 62.4217L278.97 70.9987C278.981 71.0053 278.979 71.0219 278.967 71.0257L271.805 73.1859C271.802 73.1869 271.799 73.1889 271.797 73.1917L267.836 78.9275C267.828 78.9382 267.811 78.9348 267.809 78.922L264.481 62.4374Z" fill="#1A1A1A"/>
<path d="M279.091 71.436L279.091 71.436C279.46 71.3245 279.521 70.8268 279.189 70.63L264.722 62.053C264.391 61.857 263.985 62.1455 264.061 62.5222L267.389 79.0068C267.466 79.3903 267.966 79.4929 268.188 79.171L272.067 73.5544L279.091 71.436ZM267.483 78.6839C267.483 78.6837 267.483 78.6834 267.483 78.6832L267.483 78.6839L267.483 78.6839Z" stroke="white" stroke-width="0.85723"/>
</g>
<path d="M40.712 79.16C37.736 79.16 35.88 77.512 35.88 74.568V68.28H37.016V74.52C37.016 76.968 38.216 78.04 40.712 78.04C43.208 78.04 44.408 76.968 44.408 74.52V68.28H45.544V74.568C45.544 77.512 43.688 79.16 40.712 79.16ZM47.9579 79H46.5019L50.9339 73.64V73.544L46.5019 68.28H47.9579L51.8619 72.856H51.9419L55.7979 68.28H57.2699L52.8219 73.56V73.64L57.2699 79H55.7979L51.9259 74.328H51.8299L47.9579 79ZM58.2241 79.32H57.0081L62.7681 67.96H63.9841L58.2241 79.32ZM69.337 79.16C66.361 79.16 64.505 77.512 64.505 74.568V68.28H65.641V74.52C65.641 76.968 66.841 78.04 69.337 78.04C71.833 78.04 73.033 76.968 73.033 74.52V68.28H74.169V74.568C74.169 77.512 72.313 79.16 69.337 79.16ZM77.1429 79H76.0069V68.28H77.1429V79ZM85.5273 79.16C82.8553 79.16 81.2393 78.104 81.2393 76.104C81.2393 74.632 82.1033 73.656 83.6073 73.384V73.272C82.2633 73.032 81.5592 72.104 81.5592 70.936C81.5592 69.16 82.9353 68.216 85.2393 68.216H87.7193V69.272H85.1273C83.3832 69.272 82.6953 69.816 82.6953 71.096C82.6953 72.376 83.6233 72.92 85.2233 72.92H89.0312V71.096H90.1513V72.92H91.9753V73.896H90.1513V75.384C90.1513 77.752 88.5833 79.16 85.5273 79.16ZM85.5593 78.12C88.0713 78.12 89.0312 77.336 89.0312 75.432V73.896H84.9513C83.3353 73.896 82.3753 74.552 82.3753 76.008C82.3753 77.464 83.2713 78.12 85.5593 78.12ZM96.8616 79H95.7256V68.28H100.654C102.974 68.28 104.606 69.608 104.606 71.896C104.606 74.2 102.974 75.528 100.654 75.528H96.8616V79ZM100.558 69.32H96.8616V74.488H100.558C102.446 74.488 103.454 73.72 103.454 71.896C103.454 70.104 102.446 69.32 100.558 69.32ZM106.971 79H105.835V71.096H106.859V73.256H106.939C107.179 71.992 108.075 70.936 109.723 70.936C111.547 70.936 112.347 72.28 112.347 73.752V74.536H111.211V73.928C111.211 72.584 110.651 71.928 109.275 71.928C107.675 71.928 106.971 72.936 106.971 74.712V79ZM117.535 79.16C114.959 79.16 113.247 77.448 113.247 75.048C113.247 72.648 114.959 70.936 117.535 70.936C120.127 70.936 121.839 72.648 121.839 75.048C121.839 77.448 120.127 79.16 117.535 79.16ZM117.535 78.136C119.711 78.136 120.719 76.968 120.719 75.048C120.719 73.144 119.711 71.96 117.535 71.96C115.359 71.96 114.367 73.144 114.367 75.048C114.367 76.968 115.359 78.136 117.535 78.136ZM126.759 79.16C124.231 79.16 122.823 77.448 122.823 75.048C122.823 72.648 124.231 70.936 126.663 70.936C128.535 70.936 129.703 71.944 130.055 73.304H130.135V68.28H131.271V79H130.231V76.664H130.167C129.783 78.248 128.503 79.16 126.759 79.16ZM123.975 75.048C123.975 77.336 125.191 78.12 127.047 78.12C128.903 78.12 130.135 77.048 130.135 75.176V75.032C130.135 73.08 128.967 71.992 127.015 71.992C125.207 71.992 123.975 72.76 123.975 75.048ZM136.491 79.16C134.235 79.16 133.131 77.592 133.131 75.72V71.096H134.267V75.544C134.267 77.192 135.067 78.136 136.891 78.136C138.827 78.136 139.835 76.968 139.835 74.936V71.096H140.971V79H139.947V76.536H139.867C139.595 77.88 138.459 79.16 136.491 79.16ZM146.658 79.16C144.13 79.16 142.482 77.448 142.482 75.048C142.482 72.648 144.13 70.936 146.658 70.936C148.866 70.936 150.594 72.248 150.594 74.152V74.28H149.474V74.184C149.474 72.776 148.45 71.976 146.642 71.976C144.53 71.976 143.618 73.112 143.618 75.048C143.618 76.984 144.53 78.12 146.642 78.12C148.45 78.12 149.474 77.32 149.474 75.912V75.816H150.594V75.944C150.594 77.848 148.866 79.16 146.658 79.16ZM156.964 79H155.252C153.684 79 152.676 78.344 152.676 76.488V72.072H151.268V71.096H152.676V69.208H153.828V71.096H156.964V72.072H153.828V76.552C153.828 77.656 154.372 77.96 155.524 77.96H156.964V79ZM165.836 79H161.18V68.28H165.836C169.052 68.28 171.1 70.36 171.1 73.64C171.1 76.92 169.052 79 165.836 79ZM165.836 69.32H162.332V77.96H165.836C168.556 77.96 169.9 76.552 169.9 73.64C169.9 70.728 168.556 69.32 165.836 69.32ZM176.376 79.16C173.832 79.16 172.216 77.56 172.216 75.048C172.216 72.648 173.816 70.936 176.36 70.936C178.68 70.936 180.328 72.28 180.328 74.632C180.328 74.92 180.296 75.16 180.248 75.368H173.288C173.352 77.144 174.264 78.216 176.36 78.216C178.216 78.216 179.08 77.528 179.08 76.376V76.264H180.216V76.376C180.216 78.024 178.584 79.16 176.376 79.16ZM176.344 71.88C174.296 71.88 173.368 72.936 173.288 74.664H179.256C179.256 74.584 179.256 74.504 179.256 74.424C179.256 72.76 178.2 71.88 176.344 71.88ZM185.307 79.16C182.875 79.16 181.467 78.184 181.467 76.36V76.328H182.603V76.424C182.603 77.752 183.387 78.216 185.323 78.216C187.099 78.216 187.707 77.8 187.707 76.888C187.707 76.056 187.211 75.784 185.899 75.576L183.787 75.272C182.347 75.08 181.435 74.52 181.435 73.208C181.435 71.816 182.763 70.936 184.939 70.936C187.211 70.936 188.683 71.896 188.683 73.752V73.784H187.547V73.704C187.547 72.52 186.923 71.88 184.907 71.88C183.243 71.88 182.555 72.28 182.555 73.224C182.555 74.04 182.971 74.328 184.283 74.52L186.219 74.792C187.915 75.032 188.827 75.608 188.827 76.888C188.827 78.376 187.355 79.16 185.307 79.16ZM191.455 70.088H190.319V68.28H191.455V70.088ZM191.455 79H190.319V71.096H191.455V79ZM196.758 78.36C194.406 78.36 192.966 76.808 192.966 74.648C192.966 72.488 194.454 70.936 196.886 70.936C198.55 70.936 199.862 71.72 200.182 73.128H200.262V71.096H201.286V78.248C201.286 80.856 199.638 81.88 197.254 81.88C195.11 81.88 193.478 80.808 193.478 78.968H194.614C194.614 80.36 195.542 80.904 197.302 80.904C199.35 80.904 200.15 80.28 200.15 78.312V76.248H200.07C199.75 77.464 198.582 78.36 196.758 78.36ZM194.102 74.648C194.102 76.664 195.35 77.352 197.062 77.352C199.014 77.352 200.15 76.376 200.15 74.696V74.424C200.15 72.872 198.966 71.944 197.142 71.944C195.366 71.944 194.102 72.632 194.102 74.648ZM204.346 79H203.21V71.096H204.234V73.576H204.314C204.586 72.232 205.706 70.936 207.674 70.936C209.898 70.936 211.002 72.52 211.002 74.392V79H209.866V74.552C209.866 72.92 209.082 71.976 207.274 71.976C205.354 71.976 204.346 73.144 204.346 75.176V79ZM216.611 79.16C214.067 79.16 212.451 77.56 212.451 75.048C212.451 72.648 214.051 70.936 216.595 70.936C218.915 70.936 220.563 72.28 220.563 74.632C220.563 74.92 220.531 75.16 220.483 75.368H213.523C213.587 77.144 214.499 78.216 216.595 78.216C218.451 78.216 219.315 77.528 219.315 76.376V76.264H220.451V76.376C220.451 78.024 218.819 79.16 216.611 79.16ZM216.579 71.88C214.531 71.88 213.603 72.936 213.523 74.664H219.491C219.491 74.584 219.491 74.504 219.491 74.424C219.491 72.76 218.435 71.88 216.579 71.88ZM223.205 79H222.069V71.096H223.093V73.256H223.173C223.413 71.992 224.309 70.936 225.957 70.936C227.781 70.936 228.581 72.28 228.581 73.752V74.536H227.445V73.928C227.445 72.584 226.885 71.928 225.509 71.928C223.909 71.928 223.205 72.936 223.205 74.712V79Z" fill="white"/>
<defs>
<filter id="filter0_d_425_5038" x="260.192" y="59.8455" width="23.0727" height="25.0895" filterUnits="userSpaceOnUse" color-interpolation-filters="sRGB">
<feFlood flood-opacity="0" result="BackgroundImageFix"/>
<feColorMatrix in="SourceAlpha" type="matrix" values="0 0 0 0 0 0 0 0 0 0 0 0 0 0 0 0 0 0 127 0" result="hardAlpha"/>
<feOffset dy="1.71446"/>
<feGaussianBlur stdDeviation="1.71446"/>
<feComposite in2="hardAlpha" operator="out"/>
<feColorMatrix type="matrix" values="0 0 0 0 0 0 0 0 0 0 0 0 0 0 0 0 0 0 0.27 0"/>
<feBlend mode="normal" in2="BackgroundImageFix" result="effect1_dropShadow_425_5038"/>
<feBlend mode="normal" in="SourceGraphic" in2="effect1_dropShadow_425_5038" result="shape"/>
</filter>
</defs>
</svg>
