<svg width="232" height="31" viewBox="0 0 232 31" fill="none" xmlns="http://www.w3.org/2000/svg">
<g clip-path="url(#clip0_2039_1261)">
<path d="M37.12 24.1651V22.4267L37.5067 21.8451L37.3149 20.88L34.9949 19.72L30.3549 18.1733L29.3867 17.2051L28.0349 15.6585L26.2933 13.92L24.36 12.9518L22.2349 12.3733H17.0133L15.6615 12.5651L13.7282 13.5333L11.0215 17.2051H10.6349L9.28 15.6585L5.8 12.1785L3.67488 10.6318L2.32 10.44L0.581547 11.6L0 12.5651L0.968213 12.76L2.32 11.6L3.48 11.7918L5.8 13.5333L8.50667 16.4318L9.66667 17.9785L6.57333 18.1733L3.09333 18.7518L0.773333 19.5251L0 20.2985V22.2318L0.581547 23.5867L0.19488 24.36V25.1333L1.54667 25.52V25.9067L2.12821 26.0985L2.70667 24.9385L3.48 23.9733L4.64 23.3918H7.15488L8.70155 24.1651L10.0533 26.68L11.0215 27.0667H25.3282L26.1015 26.68L26.8749 24.5518L27.84 23.5867L30.3549 23.2L32.2882 23.5867L33.2533 24.5518L34.0267 26.68L34.6082 26.8718L36.3467 26.2933L37.7015 24.7467L37.12 24.1651ZM22.2349 18.1733H12.9549L12.5682 17.7867L12.76 16.8185L14.3067 14.6933L15.2749 13.92H21.6533L22.6215 14.8851L22.8133 17.4L22.2349 18.1733Z" fill="white"/>
<path d="M132.435 16.0451L130.888 13.3384L128.955 11.5999L126.826 10.4399L124.506 9.8584H121.608L119.48 10.4399L116.773 11.9866L115.421 13.3384L114.066 15.4666L113.293 17.9784V21.2666L113.488 22.0399L114.453 24.3599L115.808 26.2933L117.741 27.8399L119.675 28.8051L122.381 29.3866L125.28 29.1917L127.6 28.4184L129.92 26.8717L131.275 25.3251L132.435 23.1999L133.013 20.8799V18.3651L132.435 16.0451ZM128.955 21.0717L128.181 23.0051L126.635 24.7466L125.088 25.5199L124.315 25.7117H121.995L120.061 24.9384L118.515 23.5866L117.546 21.8451L117.16 19.9117L117.355 17.9784L118.515 15.6584L120.061 14.3066L121.995 13.5333H124.315L125.861 14.1117L127.408 15.2717L128.568 17.0133L128.955 18.1733V21.0717Z" fill="white"/>
<path d="M74.0483 15.08L73.4667 13.3385L72.1149 11.6L70.1816 10.44L67.6667 9.85845H64.7683L63.4134 10.0533L60.1283 11.0185L57.8083 12.3733L56.8401 13.3385L58.5816 14.4985L59.5467 14.8851L60.7067 14.1118L63.2216 13.1467H67.2801L69.2134 13.92V14.3067L69.9867 15.8533V18.3651L68.2483 17.2051L65.7334 16.4318H62.0616L61.0934 16.6267L59.3549 17.2051L57.8083 18.1733L56.0667 20.1067L55.4883 21.8451V23.9733L56.0667 25.7118L57.6134 27.4533L59.3549 28.6133L61.8667 29.3867H65.1549L67.6667 28.6133L69.6001 27.4533L69.9867 26.68H70.3734V28.0318L70.5683 28.8051H74.2401L74.0483 15.08ZM70.1816 23.5867L69.4083 24.7467L67.6667 25.7118L65.9283 26.0985H63.6083L61.0934 25.3251L59.9334 24.36L59.5467 23.5867V22.04L60.7067 20.6851L62.4483 19.9118L63.2216 19.72H66.3149L68.2483 20.2985L69.4083 21.0718L70.1816 22.04V23.5867Z" fill="white"/>
<path d="M195.462 20.1066L195.267 17.3999L194.494 15.0799L193.142 12.9517L191.4 11.4051L189.08 10.2451L187.147 9.8584H185.022L183.862 10.0533L181.929 10.8266L179.8 12.1784L178.254 14.1117L177.289 16.0451L176.707 18.5599V20.6851L177.094 22.6184L178.64 25.7117L180.574 27.6451L182.702 28.8051L185.022 29.3866H187.147L188.889 28.9999L191.595 27.6451L193.529 25.7117L193.915 24.7466L191.595 23.3917L190.435 23.0051L188.889 24.7466L186.955 25.5199H185.022L183.862 25.1333L182.315 23.9733L181.542 22.8133L180.769 20.6851H195.267L195.462 20.1066ZM191.209 17.9784H180.96L181.155 16.8184L182.12 15.2717L183.475 14.1117L184.827 13.5333H187.342L189.275 14.4984L190.627 16.0451L191.209 17.3999V17.9784Z" fill="white"/>
<path d="M217.501 17.4L216.728 15.08L215.373 12.9518L213.827 11.6L211.893 10.44L209.573 9.85845H207.253L206.093 10.0533L204.355 10.6318L201.84 12.3733L200.875 13.5333L199.715 15.4667L198.941 18.3651V20.88L199.328 22.6185L200.875 25.7118L202.808 27.6451L204.933 28.8051L207.253 29.3867H209.381L210.541 29.1918L212.475 28.4185L214.213 27.2585L215.955 25.3251V24.7467L213.827 23.3918L212.667 23.0051L211.12 24.7467L209.187 25.52H207.253L205.32 24.7467L203.773 23.0051L203 20.6851H217.501V17.4ZM213.44 17.9785H203.195L203.387 16.6267L204.547 15.08L205.707 14.1118L207.061 13.5333H209.573L211.507 14.4985L212.861 16.0451L213.44 17.4V17.9785Z" fill="white"/>
<path d="M157.373 0H159.501L159.693 0.191787V12.3733L159.501 12.76L161.435 11.2133L163.368 10.2451L165.107 9.86155H167.813L169.555 10.44L171.101 11.7918L171.875 13.5333L172.067 14.3067V28.8051H168.008L167.813 15.08L167.427 14.3067L166.267 13.7282H163.947L162.013 14.5015L160.467 15.8533L159.888 17.0133L159.693 19.1415V24.36L159.501 28.8051H155.635V0.191787L157.373 0Z" fill="white"/>
<path d="M79.2676 10.4399H83.3291L83.5209 24.1651L84.1025 25.1333L84.8758 25.5199H87.1958L89.3209 24.7466L90.2891 23.9733L91.2542 22.0399L91.4491 20.2984L91.6409 10.4399H95.5076L95.7025 24.5548L95.8942 28.8051L95.1209 28.9999L91.8358 28.8051L91.6409 28.0317V26.4851L89.7076 28.0317L87.1958 29.1948L86.2276 29.3866H83.5209L81.7825 28.8051L80.2358 27.4533L79.4625 25.7117L79.2676 24.9384V10.4399Z" fill="white"/>
<path d="M142.487 9.86157H144.613L146.546 10.2451L148.479 11.0185L150.221 12.3734L150.026 13.1467L147.706 14.8851L146.159 13.7282L144.999 13.3385H142.679L141.519 13.92L140.941 14.6934V16.0482L141.906 17.0134L144.999 17.9785L147.706 18.7518L149.639 19.72L150.994 21.2667L151.381 22.2349V24.7467L150.799 26.2934L149.834 27.4534L147.901 28.6134L146.159 29.1949L144.999 29.3867H142.679L139.781 28.8051L137.461 27.6482L136.301 26.4851L136.687 25.7118L138.621 24.1651L139.199 24.36V24.7467L142.101 25.9067H144.999L146.354 25.3282L147.127 24.5549L147.319 23.3918L146.741 22.2349L144.034 21.2667L140.359 20.2985L138.426 19.3334L137.266 17.9785L136.879 17.0134L136.687 15.2749L137.266 12.9549L138.621 11.4082L140.167 10.44L142.487 9.86157Z" fill="white"/>
<path d="M223.302 4.25342H227.361V10.4401H231.227V13.7283H227.361L227.556 23.2001L228.134 24.555L229.294 25.3283L231.614 25.7119L232.001 28.6134V29.3868H229.876L227.361 28.8052L225.622 27.8401L224.267 26.2934L223.494 24.3601L223.302 23.2001V13.7283H220.209V10.4401H223.302V4.25342Z" fill="white"/>
<path d="M102.08 4.25333H105.947L106.142 10.2451L110.008 10.44V13.1467L109.813 13.7282L106.142 13.92V22.6185L106.528 24.1651L107.493 25.1333L108.653 25.52L110.2 25.7118L110.395 25.9067L110.587 29.3867H108.462L105.947 28.8051L104.013 27.6482L102.662 25.9067L102.08 23.9733L101.888 13.92L98.7949 13.7282V10.44L101.888 10.2451L102.08 4.25333Z" fill="white"/>
<path d="M30.742 26.6799L30.9338 27.2583L30.5471 27.8399H29.582L29.1953 26.8717L29.7738 26.2932L30.742 26.6799Z" fill="white"/>
<path d="M32.675 25.1333L31.3201 23.9733L29.3868 23.7785L28.8083 23.9733L27.6483 24.7467L26.875 26.0985V28.2267L27.0668 28.6133L28.035 29.7733L29.3868 30.3518H30.7417L32.2883 29.5785L33.2535 28.0318V26.2933L32.675 25.1333ZM31.9017 27.84L31.1283 28.8051L29.3868 29L28.4217 28.2267L28.2268 27.84V26.2933L29.195 25.3251H30.9335L31.9017 26.2933V27.84Z" fill="white"/>
<path d="M6.38222 26.4851L6.57401 26.68V27.6451L6.38222 27.84H5.41401L5.02734 26.8718L5.41401 26.4851H6.38222Z" fill="white"/>
<path d="M8.8937 25.7119L8.12036 24.7468L6.96036 23.9734L5.4137 23.7786L3.48036 24.7468L2.70703 26.2934V28.2268L3.0937 29.0001L4.2537 29.9652L6.18703 30.3519L7.92858 29.7734L9.08858 28.0319V26.0986L8.8937 25.7119ZM7.7337 27.8401L6.96036 28.8052L6.5737 29.0001H5.22191L4.2537 28.2268L4.06191 27.8401V26.2934L4.83524 25.5201L5.22191 25.3252H6.76858L7.7337 26.2934V27.8401Z" fill="white"/>
<path d="M30.9338 27.2583L30.5471 27.8399H29.582L29.1953 26.8717L29.7738 26.2932L30.742 26.6799L30.9338 27.2583Z" fill="#FFF7D6"/>
<path d="M6.57401 26.68V27.6451L6.38222 27.84H5.41401L5.02734 26.8718L5.41401 26.4851H6.38222L6.57401 26.68Z" fill="#FFF7D6"/>
<path d="M5.41429 1.93335L6.3825 2.32002L6.76917 3.09335V4.8318L5.60917 7.54156L5.80095 9.28002L5.02762 9.4718L4.25429 8.50668L4.0625 7.1518L4.83583 5.41335L5.2225 4.64002V2.12823L5.41429 1.93335Z" fill="white"/>
<path d="M8.89285 2.70679L9.86107 2.90167L10.2477 3.48012V5.02679L9.27952 7.15191L9.4744 8.69857L8.70107 8.89345L8.11952 8.12012L7.92773 6.96012L8.70107 5.02679L8.89285 3.86679V2.70679Z" fill="white"/>
<path d="M1.74165 2.70667L2.70677 2.90155L3.09344 4.83179L2.12832 6.76821V8.89333L1.1601 8.50667L0.773438 7.92512L0.968318 6.37845L1.74165 4.64V2.70667Z" fill="white"/>
<path d="M30.9338 27.2583L30.5471 27.8399H29.582L29.1953 26.8717L29.7738 26.2932L30.742 26.6799L30.9338 27.2583Z" fill="white"/>
<path d="M6.57401 26.68V27.6451L6.38222 27.84H5.41401L5.02734 26.8718L5.41401 26.4851H6.38222L6.57401 26.68Z" fill="white"/>
</g>
<defs>
<clipPath id="clip0_2039_1261">
<rect width="232" height="30.3518" fill="white"/>
</clipPath>
</defs>
</svg>
